<svg width="24" height="24" viewBox="0 0 24 24" fill="none" xmlns="http://www.w3.org/2000/svg">
<path d="M21.6684 0.00695447C21.5816 0.0067053 21.4949 0.00637484 21.4081 0.00597044C21.1703 0.00510075 20.9326 0.00539392 20.6949 0.00588409C20.4382 0.00621132 20.1815 0.00546277 19.9248 0.00485563C19.4222 0.00384417 18.9196 0.00384973 18.417 0.00423032C18.0085 0.00452496 17.5999 0.00447162 17.1914 0.00417084C17.1332 0.00412869 17.0751 0.00408653 17.0151 0.0040431C16.897 0.00395655 16.7788 0.00386947 16.6606 0.00378186C15.8673 0.00322695 15.074 0.00302067 14.2808 0.00354505C14.2343 0.00357577 14.2343 0.00357577 14.1868 0.0036071C13.9351 0.00377573 13.6833 0.00395502 13.4316 0.004135C12.4497 0.00482909 11.4678 0.00441876 10.486 0.00310849C9.38211 0.00163824 8.27826 0.000942668 7.17441 0.001416C7.05665 0.00146381 6.93889 0.00151031 6.82113 0.00155549C6.73422 0.0015889 6.73422 0.0015889 6.64556 0.00162299C6.23763 0.00172412 5.82972 0.00126605 5.42179 0.00058437C4.92447 -0.00023512 4.42716 -0.000229124 3.92984 0.00083458C3.67619 0.00135534 3.42255 0.00150381 3.16889 0.000633505C2.93649 -0.000153593 2.70412 0.000146677 2.47173 0.00129819C2.38785 0.00152606 2.30397 0.00136335 2.2201 0.000761113C1.59231 -0.00341978 1.08942 0.0835102 0.590419 0.501295C0.435412 0.654453 0.317478 0.819279 0.218032 1.01285C0.195067 1.05476 0.195066 1.05476 0.171637 1.09752C-0.0182035 1.49426 0.00480265 1.90252 0.00695388 2.33156C0.00670471 2.41835 0.00637664 2.50514 0.00597223 2.59192C0.00510255 2.82967 0.00539361 3.0674 0.00588377 3.30515C0.00621101 3.56184 0.00546361 3.81852 0.00485647 4.07521C0.00384501 4.5778 0.00385093 5.08039 0.00423152 5.58298C0.00452617 5.99152 0.00447237 6.40007 0.0041716 6.80861C0.00412944 6.86678 0.00408661 6.92495 0.00404318 6.98487C0.00395663 7.10304 0.00387111 7.22121 0.0037835 7.33938C0.00322859 8.13267 0.00302227 8.92595 0.00354665 9.71924C0.00356713 9.75024 0.00358548 9.78125 0.00360658 9.81319C0.0037752 10.0649 0.00395452 10.3167 0.0041345 10.5684C0.00482859 11.5503 0.00442032 12.5322 0.00311005 13.514C0.0016398 14.6179 0.000944508 15.7217 0.00141784 16.8256C0.00146565 16.9434 0.00151249 17.0611 0.00155767 17.1789C0.00157995 17.2368 0.00160036 17.2947 0.00162331 17.3544C0.00172444 17.7624 0.00126627 18.1703 0.000584585 18.5782C-0.000234905 19.0755 -0.000228 19.5728 0.000835704 20.0702C0.00135646 20.3238 0.0015034 20.5775 0.000633097 20.8311C-0.000154002 21.0635 0.000146474 21.2959 0.00129799 21.5283C0.00152586 21.6121 0.00136375 21.696 0.00076151 21.7799C-0.00341939 22.4077 0.0835103 22.9106 0.501295 23.4096C0.654453 23.5646 0.819279 23.6825 1.01285 23.782C1.05476 23.8049 1.05476 23.8049 1.09752 23.8284C1.49426 24.0182 1.90252 23.9952 2.33156 23.993C2.41835 23.9933 2.50514 23.9936 2.59192 23.994C2.82967 23.9949 3.0674 23.9946 3.30515 23.9941C3.56184 23.9938 3.81852 23.9945 4.07521 23.9951C4.5778 23.9962 5.08039 23.9961 5.58298 23.9958C5.99152 23.9955 6.40007 23.9955 6.80861 23.9958C6.86678 23.9959 6.92495 23.9959 6.98487 23.996C7.10304 23.996 7.22121 23.9961 7.33938 23.9962C8.13267 23.9968 8.92595 23.997 9.71924 23.9965C9.75024 23.9964 9.78125 23.9964 9.81319 23.9964C10.0649 23.9962 10.3167 23.996 10.5684 23.9959C11.5503 23.9952 12.5322 23.9956 13.514 23.9969C14.6179 23.9984 15.7217 23.9991 16.8256 23.9986C16.9434 23.9985 17.0611 23.9985 17.1789 23.9984C17.2368 23.9984 17.2948 23.9984 17.3544 23.9984C17.7624 23.9983 18.1703 23.9987 18.5782 23.9994C19.0755 24.0002 19.5728 24.0002 20.0702 23.9992C20.3238 23.9986 20.5775 23.9985 20.8311 23.9994C21.0635 24.0002 21.2959 23.9999 21.5283 23.9987C21.6121 23.9985 21.696 23.9986 21.7799 23.9992C22.4077 24.0034 22.9106 23.9165 23.4096 23.4987C23.5646 23.3455 23.6825 23.1807 23.782 22.9872C23.8049 22.9452 23.8049 22.9452 23.8284 22.9025C24.0182 22.5057 23.9952 22.0975 23.993 21.6684C23.9933 21.5816 23.9936 21.4949 23.994 21.4081C23.9949 21.1703 23.9946 20.9326 23.9941 20.6949C23.9938 20.4382 23.9945 20.1815 23.9951 19.9248C23.9962 19.4222 23.9962 18.9196 23.9958 18.417C23.9955 18.0085 23.9955 17.5999 23.9958 17.1914C23.9959 17.1332 23.9959 17.0751 23.996 17.0151C23.996 16.897 23.9961 16.7788 23.9962 16.6606C23.9968 15.8673 23.997 15.074 23.9965 14.2808C23.9964 14.2343 23.9964 14.2343 23.9964 14.1868C23.9962 13.9351 23.996 13.6833 23.9959 13.4316C23.9952 12.4497 23.9956 11.4678 23.9969 10.486C23.9984 9.3821 23.9991 8.27826 23.9986 7.1744C23.9985 7.05664 23.9985 6.93889 23.9984 6.82113C23.9984 6.76319 23.9984 6.70525 23.9984 6.64556C23.9983 6.23763 23.9987 5.82972 23.9994 5.42179C24.0002 4.92447 24.0002 4.42716 23.9992 3.92984C23.9986 3.67619 23.9985 3.42255 23.9994 3.16889C24.0002 2.93649 23.9999 2.70412 23.9987 2.47173C23.9985 2.38785 23.9986 2.30397 23.9992 2.2201C24.0034 1.59231 23.9165 1.08941 23.4987 0.590419C23.3455 0.435412 23.1807 0.317478 22.9872 0.218032C22.9592 0.202722 22.9313 0.187412 22.9025 0.171637C22.5057 -0.0182031 22.0975 0.00480324 21.6684 0.00695447ZM13.4494 5.73499C13.6432 6.26583 13.6432 6.26583 13.8409 6.8074C14.2509 7.92976 14.6625 9.05152 15.0748 10.173C15.1798 10.4584 15.2846 10.7439 15.3895 11.0293C15.4068 11.0766 15.4242 11.1239 15.4421 11.1726C15.4947 11.3159 15.5474 11.4593 15.6 11.6026C15.8098 12.1737 16.0196 12.7448 16.2296 13.3159C16.5815 14.2732 16.933 15.2307 17.2833 16.1886C17.3215 16.2932 17.3598 16.3978 17.3981 16.5024C17.4516 16.6487 17.5051 16.795 17.5586 16.9413C17.5816 17.004 17.5816 17.004 17.605 17.068C17.7503 17.4659 17.8902 17.8654 18.0312 18.265C16.9821 18.265 15.9329 18.265 14.852 18.265C14.735 17.9727 14.6253 17.6898 14.5342 17.3902C14.5175 17.3358 14.5175 17.3358 14.5004 17.2803C14.4772 17.2047 14.4541 17.1291 14.4311 17.0534C14.3959 16.9375 14.3601 16.8219 14.3244 16.7062C14.3017 16.6323 14.2792 16.5583 14.2566 16.4844C14.2459 16.45 14.2353 16.4156 14.2243 16.3802C14.1762 16.2204 14.1507 16.0959 14.1507 15.9273C12.7467 15.9273 11.3426 15.9273 9.89608 15.9273C9.84979 16.1125 9.8035 16.2976 9.75582 16.4884C9.71167 16.6368 9.66672 16.7844 9.61939 16.9318C9.60306 16.9833 9.60306 16.9833 9.5864 17.0359C9.54663 17.1613 9.50656 17.2865 9.46653 17.4118C9.37685 17.6933 9.28717 17.9749 9.19477 18.265C8.13018 18.265 7.0656 18.265 5.96875 18.265C6.22648 17.5265 6.22648 17.5265 6.49108 16.7906C6.50791 16.7445 6.52474 16.6984 6.54207 16.6508C6.59635 16.5022 6.65073 16.3535 6.70513 16.2049C6.72419 16.1528 6.74325 16.1006 6.76289 16.0469C7.06776 15.2131 7.37633 14.3808 7.68694 13.5491C7.9599 12.8183 8.23069 12.0867 8.49931 11.3542C8.51664 11.3069 8.53398 11.2597 8.55185 11.2109C8.56913 11.1638 8.58642 11.1167 8.60423 11.0681C8.63896 10.9734 8.67369 10.8787 8.70842 10.784C8.72552 10.7374 8.74261 10.6908 8.76023 10.6428C8.97641 10.0536 9.19406 9.46492 9.41186 8.87632C9.44433 8.78857 9.4768 8.70083 9.50926 8.61309C9.52536 8.56957 9.54147 8.52606 9.55805 8.48123C9.66425 8.19414 9.77015 7.90695 9.87587 7.61969C9.94953 7.41954 10.0233 7.21942 10.097 7.0193C10.1323 6.92357 10.1675 6.82783 10.2027 6.73207C10.2513 6.59972 10.3 6.46741 10.3488 6.33511C10.3704 6.27625 10.3704 6.27625 10.3924 6.21619C10.4058 6.18 10.4191 6.14381 10.4329 6.10653C10.4444 6.07522 10.4559 6.04392 10.4678 6.01167C10.5058 5.91718 10.5518 5.82607 10.5974 5.73499C11.5385 5.73499 12.4797 5.73499 13.4494 5.73499Z" fill="white"/>
<path d="M12.0467 9.19482C11.9385 9.30307 11.9183 9.37396 11.8728 9.5191C11.8574 9.56752 11.8421 9.61593 11.8263 9.66582C11.8098 9.71874 11.7934 9.77166 11.7764 9.82618C11.7591 9.8811 11.7418 9.93601 11.724 9.99259C11.6773 10.1411 11.6308 10.2896 11.5845 10.4382C11.5464 10.5605 11.508 10.6827 11.4697 10.8049C11.3497 11.1875 11.2305 11.5704 11.1116 11.9533C11.097 12.0006 11.0823 12.0478 11.0672 12.0966C10.986 12.3584 10.9053 12.6204 10.8253 12.8825C10.8107 12.9299 10.8107 12.9299 10.7959 12.9783C10.7693 13.065 10.743 13.1518 10.7168 13.2387C10.7026 13.2856 10.6883 13.3325 10.6737 13.3809C10.6441 13.4962 10.6441 13.4962 10.6441 13.6364C11.5544 13.6364 12.4647 13.6364 13.4026 13.6364C13.2448 13.0053 13.2448 13.0053 13.165 12.7511C13.1472 12.6941 13.1294 12.6371 13.1111 12.5784C13.092 12.518 13.073 12.4577 13.0539 12.3973C13.0338 12.3331 13.0137 12.269 12.9937 12.2048C12.9411 12.037 12.8884 11.8693 12.8356 11.7016C12.7827 11.5336 12.7301 11.3655 12.6774 11.1975C12.4681 10.5296 12.2579 9.86209 12.0467 9.19482Z" fill="white"/>
</svg>
