<svg width="24" height="24" viewBox="0 0 24 24" fill="none" xmlns="http://www.w3.org/2000/svg">
<path d="M1.72303 19.1576C1.75903 19.1574 1.79502 19.1571 1.83211 19.1568C1.95287 19.1561 2.07362 19.1565 2.19439 19.1569C2.28179 19.1566 2.36919 19.1562 2.45658 19.1558C2.69689 19.1549 2.93719 19.1549 3.1775 19.1551C3.43662 19.1552 3.69574 19.1543 3.95486 19.1536C4.46262 19.1524 4.97038 19.152 5.47813 19.1519C5.89089 19.1518 6.30364 19.1515 6.71639 19.151C7.88654 19.1497 9.05668 19.149 10.2268 19.1491C10.3215 19.1491 10.3215 19.1491 10.418 19.1492C10.4812 19.1492 10.5444 19.1492 10.6095 19.1492C11.6331 19.1492 12.6568 19.1478 13.6804 19.1457C14.7314 19.1435 15.7824 19.1425 16.8334 19.1426C17.4234 19.1427 18.0135 19.1423 18.6036 19.1407C19.1061 19.1393 19.6085 19.139 20.111 19.14C20.3673 19.1405 20.6236 19.1405 20.8799 19.1392C21.1148 19.138 21.3496 19.1382 21.5844 19.1395C21.6692 19.1398 21.7539 19.1395 21.8387 19.1387C22.4879 19.1327 23.0082 19.2372 23.4953 19.8506C23.8509 20.3887 24.0137 21.0348 23.9991 21.7479C23.9537 22.4014 23.7717 22.8978 23.4255 23.3635C23.052 23.7684 22.7018 23.98 22.2149 23.9808C22.161 23.9812 22.161 23.9812 22.106 23.9816C21.9856 23.9823 21.8653 23.9819 21.745 23.9815C21.6578 23.9818 21.5706 23.9822 21.4833 23.9826C21.2438 23.9835 21.0043 23.9835 20.7647 23.9833C20.5063 23.9833 20.2479 23.9841 19.9895 23.9848C19.4833 23.986 18.9771 23.9865 18.4709 23.9865C18.0594 23.9866 17.6479 23.9869 17.2364 23.9874C16.0697 23.9887 14.903 23.9894 13.7363 23.9893C13.6734 23.9893 13.6105 23.9893 13.5457 23.9893C13.4827 23.9893 13.4197 23.9893 13.3548 23.9892C12.3343 23.9892 11.3137 23.9906 10.2931 23.9927C9.24519 23.9949 8.19724 23.9959 7.14929 23.9958C6.56096 23.9957 5.97264 23.9961 5.38432 23.9977C4.88338 23.9991 4.38245 23.9994 3.88152 23.9984C3.626 23.9979 3.37049 23.9979 3.11497 23.9992C2.88087 24.0004 2.64679 24.0002 2.41268 23.9989C2.32818 23.9986 2.24368 23.9989 2.15918 23.9998C1.51077 24.0057 0.991132 23.9004 0.504743 23.2878C0.149124 22.7497 -0.0136735 22.1036 0.000896589 21.3905C0.0463049 20.7374 0.228133 20.24 0.574533 19.7749C0.933738 19.3915 1.25669 19.1584 1.72303 19.1576Z" fill="white"/>
<path d="M1.72303 9.58853C1.75903 9.58827 1.79502 9.58801 1.83211 9.58774C1.95287 9.58704 2.07362 9.58741 2.19439 9.58777C2.28179 9.58749 2.36919 9.58715 2.45658 9.58675C2.69689 9.58583 2.93719 9.58585 3.1775 9.58603C3.43662 9.58606 3.69574 9.58523 3.95486 9.58452C4.46262 9.58328 4.97038 9.58287 5.47813 9.58279C5.89089 9.58272 6.30364 9.58241 6.71639 9.58194C7.88654 9.58062 9.05668 9.57993 10.2268 9.58004C10.3215 9.58005 10.3215 9.58005 10.418 9.58006C10.4812 9.58007 10.5444 9.58007 10.6095 9.58008C11.6331 9.58014 12.6568 9.57871 13.6804 9.5766C14.7314 9.57445 15.7824 9.57342 16.8334 9.57355C17.4234 9.5736 18.0135 9.57319 18.6036 9.57158C19.1061 9.57022 19.6085 9.56989 20.111 9.57091C20.3673 9.5714 20.6236 9.5714 20.8799 9.57011C21.1148 9.56893 21.3496 9.56914 21.5844 9.57045C21.6692 9.57068 21.7539 9.57041 21.8387 9.56957C22.4879 9.56361 23.0082 9.66812 23.4953 10.2815C23.8509 10.8196 24.0137 11.4657 23.9991 12.1788C23.9537 12.8323 23.7717 13.3287 23.4255 13.7944C23.052 14.1993 22.7018 14.4109 22.2149 14.4117C22.161 14.4121 22.161 14.4121 22.106 14.4125C21.9856 14.4132 21.8653 14.4128 21.745 14.4125C21.6578 14.4127 21.5706 14.4131 21.4833 14.4135C21.2438 14.4144 21.0043 14.4144 20.7647 14.4142C20.5063 14.4142 20.2479 14.415 19.9895 14.4157C19.4833 14.4169 18.9771 14.4174 18.4709 14.4174C18.0594 14.4175 17.6479 14.4178 17.2364 14.4183C16.0697 14.4196 14.903 14.4203 13.7363 14.4202C13.6734 14.4202 13.6105 14.4202 13.5457 14.4202C13.4827 14.4202 13.4197 14.4202 13.3548 14.4202C12.3343 14.4201 11.3137 14.4215 10.2931 14.4236C9.24519 14.4258 8.19724 14.4268 7.14929 14.4267C6.56096 14.4266 5.97264 14.427 5.38432 14.4287C4.88338 14.43 4.38245 14.4303 3.88152 14.4293C3.626 14.4288 3.37049 14.4288 3.11497 14.4301C2.88087 14.4313 2.64679 14.4311 2.41268 14.4298C2.32818 14.4296 2.24368 14.4298 2.15918 14.4307C1.51077 14.4366 0.991132 14.3313 0.504743 13.7187C0.149124 13.1806 -0.0136735 12.5345 0.000896589 11.8214C0.0463049 11.1683 0.228133 10.6709 0.574533 10.2059C0.933738 9.82243 1.25669 9.5893 1.72303 9.58853Z" fill="white"/>
<path d="M1.72303 0.019197C1.75903 0.0189349 1.79502 0.0186727 1.83211 0.0184027C1.95287 0.0177064 2.07362 0.0180744 2.19439 0.0184377C2.28179 0.0181583 2.36919 0.0178143 2.45658 0.0174111C2.69689 0.0164955 2.93719 0.0165164 3.1775 0.0166926C3.43662 0.0167231 3.69574 0.0158981 3.95486 0.0151888C4.46262 0.0139461 4.97038 0.0135358 5.47813 0.0134525C5.89089 0.0133814 6.30364 0.0130743 6.71639 0.0126001C7.88654 0.0112831 9.05668 0.0105936 10.2268 0.0107057C10.3215 0.0107147 10.3215 0.0107147 10.418 0.0107238C10.4812 0.0107299 10.5444 0.0107361 10.6095 0.0107424C11.6331 0.0108031 12.6568 0.00937267 13.6804 0.00726414C14.7314 0.00511638 15.7824 0.00408379 16.8334 0.00421297C17.4234 0.00426261 18.0135 0.00385176 18.6036 0.00224256C19.1061 0.000881069 19.6085 0.000555987 20.111 0.00157112C20.3673 0.00205933 20.6236 0.00206791 20.8799 0.000770697C21.1148 -0.000405565 21.3496 -0.000191042 21.5844 0.00111222C21.6692 0.00134169 21.7539 0.00107037 21.8387 0.000236017C22.4879 -0.00572915 23.0082 0.0987875 23.4953 0.712155C23.8509 1.25028 24.0137 1.89638 23.9991 2.6095C23.9537 3.26295 23.7717 3.75938 23.4255 4.22504C23.052 4.62993 22.7018 4.84156 22.2149 4.84236C22.161 4.84275 22.161 4.84275 22.106 4.84316C21.9856 4.84385 21.8653 4.84348 21.745 4.84312C21.6578 4.8434 21.5706 4.84374 21.4833 4.84415C21.2438 4.84506 21.0043 4.84504 20.7647 4.84487C20.5063 4.84483 20.2479 4.84566 19.9895 4.84637C19.4833 4.84761 18.9771 4.84802 18.4709 4.84811C18.0594 4.84818 17.6479 4.84848 17.2364 4.84896C16.0697 4.85027 14.903 4.85096 13.7363 4.85085C13.6734 4.85085 13.6105 4.85084 13.5457 4.85083C13.4827 4.85083 13.4197 4.85082 13.3548 4.85082C12.3343 4.85075 11.3137 4.85219 10.2931 4.85429C9.24519 4.85644 8.19724 4.85747 7.14929 4.85735C6.56096 4.8573 5.97264 4.85771 5.38432 4.85932C4.88338 4.86068 4.38245 4.861 3.88152 4.85999C3.626 4.8595 3.37049 4.85949 3.11497 4.86079C2.88087 4.86196 2.64679 4.86175 2.41268 4.86045C2.32818 4.86022 2.24368 4.86049 2.15918 4.86132C1.51077 4.8673 0.991132 4.76193 0.504743 4.1494C0.149124 3.61128 -0.0136735 2.96518 0.000896589 2.25205C0.0463049 1.599 0.228133 1.10158 0.574533 0.636518C0.933738 0.253095 1.25669 0.0199636 1.72303 0.019197Z" fill="white"/>
</svg>
