<svg width="25" height="24" viewBox="0 0 25 24" fill="none" xmlns="http://www.w3.org/2000/svg">
<path d="M0.156026 8.52344C8.04525 8.52344 15.9345 8.52344 24.0628 8.52344C24.0628 10.7984 24.0628 13.0734 24.0628 15.4173C23.5579 15.4193 23.053 15.4213 22.5328 15.4233C22.2122 15.425 21.8917 15.4266 21.5712 15.4285C21.0628 15.4314 20.5544 15.4341 20.0461 15.4358C19.6758 15.437 19.3054 15.4388 18.9351 15.4413C18.7393 15.4425 18.5434 15.4435 18.3476 15.4439C18.1283 15.4443 17.909 15.4459 17.6897 15.4476C17.6256 15.4475 17.5615 15.4475 17.4955 15.4474C16.7215 15.4559 15.9792 15.6568 15.4179 16.2189C14.8181 16.937 14.7184 17.691 14.7132 18.5925C14.7127 18.651 14.7122 18.7095 14.7116 18.7697C14.71 18.9611 14.7086 19.1525 14.7073 19.3439C14.7062 19.4774 14.7051 19.6108 14.704 19.7442C14.701 20.094 14.6984 20.4439 14.6958 20.7937C14.6931 21.1512 14.6901 21.5088 14.6872 21.8663C14.6815 22.5668 14.6761 23.2673 14.6708 23.9678C13.0928 23.9739 11.5147 23.9786 9.93668 23.9814C9.75007 23.9818 9.56346 23.9821 9.37685 23.9825C9.33971 23.9825 9.30256 23.9826 9.26428 23.9827C8.66401 23.9838 8.06374 23.9859 7.46347 23.9884C6.84683 23.9909 6.23019 23.9924 5.61354 23.9929C5.26747 23.9933 4.92142 23.9941 4.57536 23.996C4.24923 23.9979 3.92311 23.9984 3.59697 23.998C3.47767 23.9981 3.35837 23.9986 3.23908 23.9996C2.28163 24.0075 1.55482 23.9116 0.841828 23.2144C0.335683 22.6802 0.138787 22.1067 0.143192 21.3828C0.143101 21.3279 0.143009 21.2729 0.142915 21.2163C0.142739 21.0319 0.143327 20.8476 0.14391 20.6633C0.143943 20.5289 0.143929 20.3946 0.143871 20.2602C0.143849 19.937 0.144306 19.6137 0.144992 19.2905C0.145761 18.9165 0.145845 18.5424 0.145929 18.1684C0.146489 17.1812 0.147979 16.194 0.149356 15.2069C0.151557 13.0013 0.153758 10.7958 0.156026 8.52344Z" fill="white"/>
<path d="M6.87981 0.0262983C7.17075 0.161575 7.22539 0.278217 7.41344 0.560705C7.41344 0.931049 7.41344 1.30139 7.41344 1.68296C10.5128 1.68296 13.6121 1.68296 16.8054 1.68296C16.8054 1.31262 16.8054 0.942271 16.8054 0.560705C17.0814 0.146079 17.0814 0.146079 17.339 0.0262983C17.6378 -0.0139861 17.8905 -0.0150133 18.1661 0.113139C18.4008 0.336429 18.5254 0.509141 18.5339 0.837511C18.5324 0.938986 18.5299 1.04045 18.5263 1.14187C18.5254 1.19395 18.5244 1.24603 18.5234 1.29969C18.5209 1.4275 18.5174 1.5552 18.513 1.68296C18.5543 1.68248 18.5955 1.68201 18.638 1.68152C19.0296 1.67721 19.4213 1.67397 19.8129 1.67188C20.0142 1.67078 20.2155 1.66928 20.4168 1.66683C20.6116 1.66448 20.8064 1.66323 21.0012 1.66268C21.0749 1.66229 21.1487 1.66153 21.2224 1.66036C22.0303 1.64809 22.7136 1.83162 23.3272 2.3756C24.5011 3.58958 24.0628 5.25102 24.0628 6.8667C16.1736 6.8667 8.28433 6.8667 0.156036 6.8667C0.156036 3.19142 0.156036 3.19143 0.851427 2.41735C1.50196 1.79656 2.21532 1.66581 3.07934 1.67252C3.1553 1.67272 3.23126 1.67287 3.30723 1.67298C3.50584 1.67339 3.70445 1.67443 3.90306 1.67562C4.10626 1.67672 4.30945 1.6772 4.51265 1.67774C4.91038 1.67888 5.3081 1.6807 5.70582 1.68296C5.70414 1.63448 5.70414 1.63448 5.70243 1.58503C5.69797 1.43732 5.69521 1.28962 5.69248 1.14187C5.69069 1.09103 5.6889 1.04019 5.68706 0.987813C5.68269 0.673248 5.70488 0.487674 5.91927 0.240061C6.20057 -0.0275572 6.51204 -0.0232817 6.87981 0.0262983ZM5.70582 1.7364C5.70213 2.08532 5.69895 2.43417 5.69702 2.7831C5.69622 2.90164 5.69513 3.02018 5.69374 3.13871C5.69178 3.30971 5.69089 3.48069 5.69018 3.65171C5.68936 3.70416 5.68853 3.75662 5.68768 3.81067C5.6876 4.157 5.70323 4.5423 5.94151 4.81589C6.16736 5.01241 6.36236 5.06947 6.65969 5.06454C6.93235 5.0289 7.10218 4.88984 7.27336 4.68232C7.44679 4.34833 7.4206 3.99319 7.41865 3.62561C7.41858 3.5715 7.4185 3.51739 7.41843 3.46164C7.41813 3.28959 7.41746 3.11754 7.41678 2.9455C7.41651 2.82852 7.41627 2.71155 7.41605 2.59458C7.41551 2.30852 7.41446 2.02246 7.41344 1.7364C6.84993 1.7364 6.28641 1.7364 5.70582 1.7364ZM16.8054 1.7364C16.8017 2.08532 16.7985 2.43417 16.7966 2.7831C16.7958 2.90164 16.7947 3.02018 16.7933 3.13871C16.7913 3.30971 16.7905 3.48069 16.7897 3.65171C16.7889 3.70416 16.7881 3.75662 16.7872 3.81067C16.7872 4.157 16.8028 4.5423 17.0411 4.81589C17.2669 5.01241 17.4619 5.06947 17.7592 5.06454C18.0319 5.0289 18.2017 4.88984 18.3729 4.68232C18.5463 4.34833 18.5202 3.99319 18.5182 3.62561C18.5181 3.5715 18.5181 3.51739 18.518 3.46164C18.5177 3.28959 18.517 3.11754 18.5163 2.9455C18.5161 2.82852 18.5158 2.71155 18.5156 2.59458C18.5151 2.30852 18.514 2.02246 18.513 1.7364C17.9495 1.7364 17.386 1.7364 16.8054 1.7364Z" fill="white"/>
<path d="M17.345 17.0674C17.4001 17.0673 17.4552 17.0672 17.5119 17.0671C17.572 17.0673 17.6321 17.0675 17.6941 17.0677C17.7576 17.0677 17.8211 17.0677 17.8866 17.0677C18.0605 17.0677 18.2345 17.068 18.4085 17.0684C18.5904 17.0687 18.7723 17.0687 18.9542 17.0688C19.2985 17.069 19.6428 17.0694 19.9872 17.0699C20.3792 17.0705 20.7713 17.0708 21.1633 17.0711C21.9697 17.0717 22.7761 17.0726 23.5825 17.0738C23.532 17.1335 23.4814 17.1932 23.4308 17.2528C23.4026 17.286 23.3744 17.3192 23.3454 17.3535C23.2387 17.4747 23.1234 17.5817 23.0022 17.6884C22.933 17.7496 22.933 17.7496 22.8623 17.8121C22.8182 17.8507 22.7741 17.8892 22.7287 17.9288C22.6929 17.9602 22.657 17.9915 22.6201 18.0238C22.5519 18.0834 22.4837 18.143 22.4154 18.2025C22.2784 18.3236 22.1434 18.4468 22.0083 18.5701C21.8062 18.7547 21.6025 18.9368 21.3961 19.1164C21.27 19.2271 21.1455 19.3394 21.0211 19.4519C20.8632 19.5946 20.7047 19.7364 20.5442 19.8761C20.3719 20.0263 20.2026 20.1795 20.0339 20.3337C19.8318 20.5182 19.6281 20.7003 19.4217 20.88C19.2956 20.9906 19.1711 21.103 19.0467 21.2154C18.8876 21.3592 18.7279 21.502 18.5664 21.643C18.3147 21.8626 18.0671 22.0869 17.8193 22.311C17.5356 22.5675 17.2516 22.8236 16.9632 23.0748C16.8882 23.1403 16.8137 23.2061 16.7393 23.2723C16.7006 23.3067 16.6619 23.341 16.622 23.3764C16.5868 23.4078 16.5517 23.4391 16.5154 23.4714C16.4318 23.5401 16.4318 23.5401 16.3785 23.5401C16.3735 22.7792 16.3697 22.0183 16.3674 21.2573C16.3663 20.904 16.3648 20.5507 16.3624 20.1974C16.3601 19.8564 16.3588 19.5155 16.3582 19.1745C16.3578 19.0444 16.3571 18.9143 16.3559 18.7842C16.3544 18.602 16.3542 18.4199 16.3543 18.2377C16.3535 18.1838 16.3527 18.13 16.3519 18.0746C16.3537 17.7663 16.383 17.584 16.5919 17.341C16.8388 17.1123 17.0156 17.067 17.345 17.0674Z" fill="white"/>
</svg>
