<svg width="31" height="21" viewBox="0 0 31 21" fill="none" xmlns="http://www.w3.org/2000/svg">
<path d="M15.1797 0.00267736C15.4238 0.00253513 15.6678 0.00134557 15.9119 0.000104093C17.2826 -0.00320551 18.6371 0.071905 19.9908 0.297133C20.0338 0.304159 20.0768 0.311185 20.1211 0.318424C21.7634 0.587861 23.3842 0.970774 24.6676 2.10974C24.7057 2.14223 24.7437 2.17472 24.783 2.20819C25.5811 2.94695 26.0583 4.02876 26.5309 4.99217C26.588 5.11765 26.588 5.11765 26.6622 5.18666C26.7722 5.19381 26.8825 5.19687 26.9927 5.19817C27.0604 5.19973 27.1281 5.20129 27.1979 5.2029C27.3408 5.20569 27.4838 5.20775 27.6267 5.20904C28.0305 5.2198 28.287 5.23495 28.5924 5.514C28.8156 5.79021 28.9082 6.00642 28.9141 6.36506C28.8519 6.64019 28.7911 6.88306 28.5924 7.08519C28.5783 7.21483 28.5783 7.21483 28.6568 7.34706C28.8072 7.44973 28.9526 7.53806 29.1112 7.62529C29.8129 8.03582 30.2193 8.43801 30.4583 9.24559C30.5724 9.67707 30.6481 10.1137 30.7157 10.5549C30.7255 10.6176 30.7353 10.6803 30.7454 10.745C31.0721 12.9557 31.1285 15.438 30.6514 17.6253C30.6362 17.6989 30.621 17.7725 30.6054 17.8484C30.2728 19.4513 30.2728 19.4513 29.8109 19.8062C29.6219 19.9166 29.6219 19.9166 29.4289 19.9821C29.377 20.109 29.377 20.109 29.3444 20.2603C29.2484 20.5867 29.124 20.7087 28.8498 20.8986C28.668 20.9911 28.5143 20.974 28.311 20.9757C28.2689 20.9761 28.2269 20.9765 28.1835 20.977C28.044 20.9783 27.9045 20.979 27.765 20.9797C27.7174 20.98 27.6697 20.9802 27.6206 20.9805C27.3682 20.9819 27.1157 20.9828 26.8633 20.9834C26.603 20.9841 26.3427 20.9864 26.0823 20.989C25.8818 20.9907 25.6814 20.9913 25.4809 20.9915C25.3849 20.9918 25.289 20.9926 25.1931 20.9938C25.0584 20.9954 24.9239 20.9953 24.7893 20.9949C24.7128 20.9952 24.6364 20.9956 24.5576 20.996C24.2181 20.9448 24.0217 20.7784 23.807 20.514C23.6938 20.2924 23.6795 20.1625 23.7025 19.9166C23.6658 19.9188 23.6291 19.9209 23.5913 19.9231C23.1117 19.9384 22.6835 19.8433 22.2186 19.7325C21.5104 19.5735 20.8099 19.4676 20.0873 19.4052C19.961 19.3943 19.961 19.3943 19.8321 19.3831C17.0978 19.1632 14.3738 19.1672 11.6385 19.352C11.5813 19.3557 11.5241 19.3595 11.4651 19.3633C10.4693 19.4295 9.49016 19.5459 8.52193 19.798C8.0867 19.9104 7.67948 19.9483 7.23108 19.9166C7.23324 19.9772 7.23539 20.0378 7.23761 20.1002C7.22898 20.3768 7.14561 20.4905 6.97371 20.7022C6.6913 20.9289 6.50661 20.997 6.14833 20.998C6.08517 20.9987 6.08517 20.9987 6.02073 20.9994C5.88261 21.0005 5.74458 20.9998 5.60646 20.9989C5.50984 20.9991 5.41323 20.9993 5.31661 20.9996C5.11455 21 4.91251 20.9995 4.71045 20.9982C4.45212 20.9967 4.19386 20.9976 3.93553 20.9992C3.73614 21.0001 3.53678 20.9998 3.33739 20.9991C3.24218 20.999 3.14696 20.9992 3.05174 20.9998C2.91838 21.0005 2.78513 20.9994 2.65178 20.998C2.57608 20.9978 2.50037 20.9976 2.42238 20.9974C2.08467 20.9439 1.8875 20.7775 1.67359 20.514C1.56031 20.2924 1.54602 20.1625 1.56903 19.9166C1.5133 19.9126 1.45756 19.9085 1.40014 19.9044C1.13349 19.839 0.963909 19.7423 0.796937 19.5238C0.59326 19.07 0.476208 18.5861 0.374697 18.0999C0.362131 18.044 0.349566 17.988 0.33662 17.9304C0.0724672 16.689 -0.00863596 15.4512 0.000712322 14.1842C0.000968919 14.1132 0.00122551 14.0422 0.00148989 13.969C0.0211636 9.30892 0.0211636 9.30892 1.01007 8.18994C1.40326 7.82315 1.88412 7.55699 2.34113 7.28159C2.30541 7.1156 2.27272 7.01334 2.18028 6.86834C2.00602 6.55067 1.99254 6.27655 2.08779 5.93135C2.21091 5.59147 2.40819 5.41441 2.72718 5.25213C2.83659 5.25684 2.94586 5.26511 3.05492 5.27515C3.76728 5.3415 3.76728 5.3415 4.39776 5.07654C4.60773 4.78104 4.72833 4.44457 4.85136 4.10436C4.94479 3.86638 5.07229 3.65972 5.21237 3.44771C5.23616 3.41089 5.25994 3.37408 5.28445 3.33615C5.50619 2.99776 5.74696 2.67885 6.00859 2.3716C6.04177 2.3316 6.07495 2.2916 6.10913 2.25039C7.64546 0.538686 10.516 0.286939 12.6358 0.080275C12.7014 0.0738666 12.7671 0.0674582 12.8348 0.0608556C13.6151 -0.00329018 14.3973 0.00262653 15.1797 0.00267736ZM7.65986 3.75535C7.09012 4.35385 6.71262 5.10367 6.35443 5.84542C6.33157 5.89138 6.30872 5.93733 6.28517 5.98468C6.15469 6.26505 6.10066 6.45013 6.20162 6.75786C6.27636 6.87184 6.27636 6.87184 6.39464 6.95426C6.55872 6.9837 6.55872 6.9837 6.74952 6.97804C6.82642 6.97809 6.90331 6.97813 6.98253 6.97817C7.07074 6.97707 7.15895 6.97591 7.24717 6.97472C7.34371 6.97414 7.44026 6.97359 7.53681 6.97306C8.16757 6.96773 8.79766 6.94797 9.42799 6.92434C13.3255 6.77881 17.2282 6.7507 21.126 6.90765C21.5773 6.92581 22.0286 6.9414 22.48 6.95426C22.5243 6.95558 22.5686 6.9569 22.6142 6.95826C22.899 6.96656 23.1837 6.97278 23.4686 6.97659C23.5605 6.97806 23.6525 6.98009 23.7444 6.98271C23.8722 6.98623 24 6.98743 24.1277 6.98853C24.201 6.98983 24.2743 6.99112 24.3497 6.99246C24.5511 6.97001 24.5511 6.97001 24.6929 6.80121C24.8036 6.61458 24.8221 6.51713 24.7769 6.30452C24.6766 6.00142 24.5294 5.72203 24.3821 5.44035C24.3473 5.3735 24.3125 5.30666 24.2767 5.23779C23.558 3.88575 22.733 3.21018 21.2865 2.76258C17.8263 1.77061 10.5092 1.10343 7.65986 3.75535ZM2.21245 9.63839C2.02411 9.98681 2.07133 10.3736 2.14811 10.7513C2.31609 11.0814 2.49587 11.2659 2.82771 11.4142C3.41307 11.5658 4.01422 11.5421 4.61319 11.5165C4.69115 11.5132 4.76912 11.51 4.84944 11.5067C5.35422 11.4842 5.85866 11.4574 6.36247 11.4183C6.4208 11.4145 6.47914 11.4107 6.53924 11.4068C6.86578 11.3786 6.86578 11.3786 7.1406 11.2047C7.18539 11.1423 7.18539 11.1423 7.23108 11.0787C7.01739 10.5617 6.39574 10.3414 5.91686 10.1394C5.01482 9.79408 4.01922 9.43291 3.04889 9.42562C3.00393 9.42427 2.95898 9.42292 2.91266 9.42153C2.62363 9.41931 2.44094 9.45553 2.21245 9.63839ZM26.4048 9.70385C26.3255 9.7249 26.3255 9.7249 26.2445 9.74637C25.3251 9.9939 24.4262 10.2981 23.7025 10.9477C23.7237 11.0557 23.745 11.1638 23.7668 11.2751C23.878 11.296 23.9893 11.3164 24.1006 11.3364C24.1626 11.3478 24.2245 11.3592 24.2883 11.3709C24.9692 11.4661 25.6583 11.4898 26.3445 11.5165C26.4263 11.5204 26.5081 11.5243 26.5924 11.5284C27.285 11.5547 28.068 11.5787 28.6085 11.0746C28.8677 10.6319 28.8734 10.2003 28.7726 9.7059C28.7264 9.54954 28.7264 9.54954 28.5281 9.44199C27.7956 9.35687 27.1082 9.51268 26.4048 9.70385ZM12.5594 13.8487C12.5053 13.8553 12.4513 13.8619 12.3957 13.8687C11.8022 13.942 11.2147 14.0309 10.6291 14.1543C10.5805 14.1645 10.5318 14.1746 10.4817 14.1851C9.71995 14.3526 8.81836 14.6187 8.32488 15.2685C8.27055 15.5495 8.26322 15.6881 8.40833 15.9331C8.77981 16.3987 9.23051 16.6067 9.80474 16.7088C10.1262 16.7353 10.448 16.7424 10.7704 16.7492C10.8193 16.7504 10.8682 16.7516 10.9187 16.7528C12.3591 16.7883 13.8003 16.7841 15.2411 16.7828C15.5585 16.7825 15.8758 16.7825 16.1932 16.7828C18.3015 16.7874 18.3015 16.7874 20.4095 16.7533C20.4826 16.7518 20.5557 16.7504 20.631 16.7489C21.3124 16.7255 21.8845 16.5666 22.4157 16.1196C22.6056 15.897 22.6486 15.6952 22.6343 15.3984C22.5878 15.1627 22.4653 15.0204 22.287 14.8757C21.2849 14.2093 19.9653 14.0778 18.8125 13.8937C18.7465 13.8831 18.6804 13.8724 18.6123 13.8614C16.5922 13.5452 14.5807 13.5983 12.5594 13.8487Z" fill="white"/>
</svg>
