<svg width="25" height="24" viewBox="0 0 25 24" fill="none" xmlns="http://www.w3.org/2000/svg">
<path d="M12.1283 0.000190296C12.1735 0.000275635 12.2188 0.000360974 12.2655 0.000448899C12.9365 0.00257571 13.5894 0.0264003 14.2497 0.155272C14.3126 0.166576 14.3126 0.166576 14.3769 0.178109C17.1771 0.684791 19.8697 2.27928 21.5999 4.55608C21.6194 4.58137 21.639 4.60667 21.6591 4.63273C22.0188 5.10067 22.3344 5.59037 22.6299 6.10104C22.6484 6.13275 22.6668 6.16446 22.6859 6.19712C23.303 7.27011 23.7059 8.46745 23.9554 9.6767C23.9623 9.70997 23.9692 9.74324 23.9763 9.77752C24.1161 10.5099 24.1456 11.2419 24.1427 11.9854C24.1426 12.0533 24.1426 12.0533 24.1424 12.1226C24.1403 12.7936 24.1165 13.4465 23.9876 14.1068C23.9801 14.1488 23.9725 14.1908 23.9648 14.234C23.4581 17.0342 21.8636 19.7268 19.5868 21.4571C19.5615 21.4766 19.5362 21.4961 19.5102 21.5162C19.0422 21.8759 18.5525 22.1915 18.0418 22.487C18.0101 22.5055 17.9784 22.524 17.9458 22.543C16.8728 23.1601 15.6754 23.563 14.4662 23.8125C14.4329 23.8194 14.3996 23.8263 14.3654 23.8335C13.633 23.9732 12.901 24.0027 12.1575 23.9998C12.1122 23.9997 12.0669 23.9996 12.0203 23.9996C11.3492 23.9974 10.6963 23.9736 10.0361 23.8447C9.99412 23.8372 9.95212 23.8297 9.90885 23.8219C7.10872 23.3152 4.41607 21.7207 2.68583 19.4439C2.66632 19.4186 2.64681 19.3933 2.62671 19.3673C2.267 18.8993 1.95134 18.4096 1.65585 17.899C1.63739 17.8672 1.61893 17.8355 1.59991 17.8029C0.982757 16.7299 0.579872 15.5326 0.330342 14.3233C0.323439 14.29 0.316537 14.2568 0.309425 14.2225C0.169659 13.4901 0.140156 12.7581 0.143074 12.0146C0.143159 11.9693 0.143244 11.924 0.143332 11.8774C0.145459 11.2064 0.169284 10.5535 0.298155 9.89323C0.30946 9.83024 0.30946 9.83024 0.320992 9.76597C0.827675 6.96583 2.42216 4.27319 4.69896 2.54294C4.72426 2.52344 4.74955 2.50393 4.77561 2.48383C5.24355 2.12412 5.73325 1.80846 6.24393 1.51297C6.27563 1.49451 6.30734 1.47605 6.34001 1.45703C7.41299 0.839873 8.61033 0.436989 9.81958 0.187459C9.85286 0.180556 9.88613 0.173654 9.92041 0.166542C10.6527 0.0267759 11.3848 -0.00272687 12.1283 0.000190296ZM5.02668 5.02425C4.98724 5.06341 4.98724 5.06341 4.94699 5.10337C3.14734 6.912 2.16978 9.46257 2.15328 12C2.1731 14.7124 3.26358 17.2036 5.16713 19.1162C5.19324 19.1425 5.21935 19.1688 5.24625 19.1959C7.05488 20.9955 9.60545 21.9731 12.1429 21.9896C14.8553 21.9698 17.3465 20.8793 19.2591 18.9757C19.2854 18.9496 19.3117 18.9235 19.3388 18.8966C21.1384 17.088 22.116 14.5374 22.1325 12C22.1127 9.28757 21.0222 6.79639 19.1186 4.8838C19.0795 4.84435 19.0795 4.84435 19.0395 4.80411C17.2309 3.00445 14.6803 2.0269 12.1429 2.0104C9.43046 2.03021 6.93927 3.1207 5.02668 5.02425Z" fill="white"/>
<path d="M10.3042 5.7213C10.3545 5.71901 10.4049 5.71672 10.4567 5.71436C10.9225 5.78176 11.2343 6.13304 11.5514 6.45343C11.6004 6.50225 11.6494 6.55103 11.6985 6.59977C11.8308 6.73138 11.9624 6.86357 12.094 6.9959C12.2322 7.13479 12.3709 7.27321 12.5096 7.41169C12.7423 7.64423 12.9745 7.87715 13.2066 8.11029C13.4743 8.37925 13.7426 8.64762 14.0112 8.91568C14.2704 9.17435 14.5292 9.43342 14.7878 9.69267C14.8975 9.80264 15.0073 9.91248 15.1172 10.0222C15.2468 10.1516 15.3761 10.2813 15.5051 10.4113C15.5523 10.4587 15.5996 10.5061 15.647 10.5533C16.3161 11.2195 16.3161 11.2195 16.3495 11.7197C16.3256 12.586 15.2076 13.3391 14.6329 13.9156C14.5823 13.9664 14.5317 14.0172 14.481 14.0681C14.2434 14.3066 14.0056 14.545 13.7678 14.7833C13.4947 15.0568 13.222 15.3308 12.9496 15.6051C12.7377 15.8183 12.5255 16.0312 12.3131 16.2438C12.1867 16.3703 12.0604 16.497 11.9346 16.624C11.8164 16.7433 11.6978 16.8621 11.5788 16.9806C11.515 17.0444 11.4516 17.1087 11.3883 17.1729C11.1185 17.4404 10.8481 17.6835 10.4649 17.7535C10.1571 17.7469 9.88852 17.7383 9.6429 17.5368C9.41107 17.2841 9.30826 17.0811 9.29762 16.735C9.29533 16.6847 9.29304 16.6344 9.29067 16.5825C9.35346 16.1487 9.66185 15.8527 9.96263 15.5572C10.0038 15.516 10.0449 15.4749 10.0873 15.4325C10.1991 15.3207 10.3114 15.2094 10.4238 15.0982C10.5416 14.9816 10.6589 14.8645 10.7762 14.7473C10.998 14.5261 11.2203 14.3054 11.4428 14.0848C11.6962 13.8335 11.9491 13.5816 12.2019 13.3297C12.7216 12.812 13.242 12.2949 13.7628 11.7783C13.6969 11.6289 13.6189 11.5294 13.5031 11.4149C13.4686 11.3806 13.4342 11.3463 13.3987 11.3109C13.3608 11.2737 13.323 11.2365 13.2841 11.1982C13.2442 11.1587 13.2044 11.1192 13.1634 11.0784C13.0542 10.9701 12.9449 10.862 12.8355 10.754C12.7207 10.6405 12.6064 10.5268 12.492 10.413C12.1025 10.0258 11.7125 9.63908 11.322 9.25281C11.1063 9.03939 10.8909 8.82563 10.6759 8.61151C10.5622 8.49838 10.4484 8.38543 10.3341 8.27291C10.2065 8.14708 10.0795 8.02069 9.95255 7.89415C9.91501 7.85744 9.87748 7.82072 9.8388 7.78289C9.58067 7.52386 9.35298 7.25659 9.28574 6.88862C9.29229 6.58081 9.30092 6.31221 9.50245 6.06658C9.75512 5.83476 9.95815 5.73194 10.3042 5.7213Z" fill="white"/>
</svg>
