<svg width="18" height="24" viewBox="0 0 18 24" fill="none" xmlns="http://www.w3.org/2000/svg">
<path d="M10.5056 0.237723C10.5658 0.252375 10.5658 0.252375 10.6273 0.267322C12.2425 0.667653 13.6187 1.52187 14.7848 2.71478C14.8075 2.73796 14.8302 2.76114 14.8535 2.78502C16.3922 4.37854 17.1437 6.6538 17.1429 8.85375C17.0892 12.4059 14.9426 15.8511 13.0363 18.6988C12.9988 18.7552 12.9988 18.7552 12.9605 18.8127C12.4563 19.5695 11.9261 20.3043 11.3701 21.0225C11.2576 21.1683 11.146 21.3148 11.0344 21.4613C10.6705 21.9384 10.2971 22.4062 9.91167 22.8655C9.77381 23.0301 9.64021 23.1976 9.50771 23.3667C9.32218 23.5985 9.11648 23.8443 8.84916 23.9801C8.7612 23.9883 8.67288 23.9926 8.58458 23.9947C8.53737 23.9965 8.49016 23.9982 8.44151 24C8.13763 23.9582 7.94849 23.731 7.75348 23.5098C7.7294 23.4829 7.70531 23.4559 7.68049 23.4282C7.50347 23.2286 7.33362 23.0239 7.16808 22.8144C7.08137 22.7051 6.99383 22.5968 6.90531 22.4891C6.61413 22.1341 6.33113 21.7755 6.06076 21.4039C5.90625 21.192 5.74609 20.986 5.58227 20.7815C5.31081 20.4413 5.06362 20.0859 4.8179 19.7263C4.76034 19.6427 4.702 19.5598 4.64297 19.4773C2.66634 16.7107 0.641286 13.4378 0.106791 10.0057C0.101468 9.97189 0.0961442 9.93803 0.0906596 9.90315C-0.232684 7.75906 0.319732 5.43967 1.57452 3.68549C1.60643 3.64277 1.63834 3.60006 1.67121 3.55605C1.70028 3.51671 1.72934 3.47737 1.75929 3.43683C2.99859 1.8128 4.67791 0.721296 6.64056 0.237723C6.67937 0.227828 6.71818 0.217932 6.75817 0.207737C7.94724 -0.0842063 9.32131 -0.0631841 10.5056 0.237723ZM5.62828 5.56574C5.59904 5.59152 5.5698 5.61731 5.53968 5.64388C4.73928 6.39893 4.35403 7.51833 4.2853 8.59907C4.25703 9.82102 4.74931 10.9217 5.55819 11.8064C6.11716 12.3627 6.80575 12.7435 7.56081 12.9502C7.5974 12.9607 7.634 12.9711 7.6717 12.9819C8.72338 13.2291 9.8901 13.0026 10.8031 12.433C11.7974 11.7616 12.486 10.8173 12.7602 9.63185C12.9845 8.49166 12.7961 7.30337 12.1546 6.32549C11.4397 5.29692 10.4736 4.68203 9.27297 4.41557C7.89686 4.24552 6.66844 4.63182 5.62828 5.56574Z" fill="white"/>
</svg>
