<svg width="26" height="24" viewBox="0 0 26 24" fill="none" xmlns="http://www.w3.org/2000/svg">
<path d="M11.0564 0.00605329C11.103 0.00576771 11.1495 0.00548213 11.1975 0.0051879C11.35 0.00441668 11.5026 0.00446452 11.6551 0.00459363C11.7621 0.00437614 11.869 0.00413387 11.976 0.00386807C12.1998 0.00345222 12.4235 0.00346657 12.6473 0.00376149C12.9327 0.0040849 13.2181 0.00313959 13.5035 0.00184245C13.7243 0.00101543 13.9451 0.000970763 14.1659 0.00114454C14.2711 0.00111604 14.3762 0.000826628 14.4814 0.000261033C15.332 -0.00375267 16.0561 0.0302548 16.7143 0.697806C17.2367 1.30717 17.376 1.96421 17.3684 2.7805C17.3682 2.83932 17.3681 2.89814 17.3679 2.95874C17.3674 3.14488 17.3661 3.33101 17.3648 3.51715C17.3643 3.64407 17.3638 3.77099 17.3634 3.89791C17.3624 4.20753 17.3604 4.51712 17.3585 4.82674C18.0609 4.82674 18.7632 4.82674 19.4869 4.82674C19.4869 11.1329 19.4869 17.4391 19.4869 23.9364C15.2057 23.9364 10.9245 23.9364 6.51355 23.9364C6.51355 17.6302 6.51355 11.324 6.51355 4.82674C7.21594 4.82674 7.91832 4.82674 8.64199 4.82674C8.64023 4.64091 8.63846 4.45508 8.63665 4.26362C8.63546 4.08164 8.63454 3.89966 8.63364 3.71768C8.63288 3.59217 8.63185 3.46667 8.63052 3.34117C8.62866 3.15973 8.62781 2.97832 8.62715 2.79687C8.62636 2.74166 8.62558 2.68646 8.62477 2.62958C8.62461 1.89404 8.8 1.27762 9.25546 0.731637C9.77606 0.189129 10.3543 0.00378758 11.0564 0.00605329ZM10.8718 2.47995C10.8718 3.25439 10.8718 4.02883 10.8718 4.82674C12.2766 4.82674 13.6813 4.82674 15.1287 4.82674C15.1287 4.0523 15.1287 3.27786 15.1287 2.47995C13.7239 2.47995 12.3191 2.47995 10.8718 2.47995Z" fill="white"/>
<path d="M4.38512 4.82678C4.38512 11.133 4.38512 17.4391 4.38512 23.9364C1.45054 23.9364 1.45054 23.9364 0.83771 23.4335C0.786494 23.3943 0.735279 23.3551 0.682511 23.3148C0.321361 22.9688 0.0632902 22.4141 0.0127528 21.8902C0.00723625 21.7256 0.00636155 21.5617 0.00722817 21.3969C0.00681878 21.3028 0.00681881 21.3028 0.00640115 21.2068C0.00567853 20.9974 0.00603723 20.7881 0.00639845 20.5787C0.00610935 20.4283 0.00576148 20.2778 0.00534448 20.1273C0.00447489 19.7616 0.00443058 19.3958 0.00469647 19.0301C0.00490164 18.7327 0.00482782 18.4352 0.00455728 18.1378C0.00451936 18.0954 0.00448114 18.053 0.00444207 18.0093C0.00436445 17.9232 0.00428684 17.837 0.00420854 17.7509C0.00351351 16.9438 0.003788 16.1366 0.00436977 15.3295C0.00487301 14.5919 0.00421752 13.8544 0.00300494 13.1168C0.00176774 12.3586 0.00128204 11.6003 0.00161885 10.842C0.00179558 10.4167 0.00168435 9.99134 0.000795311 9.56601C4.78203e-05 9.20392 1.90997e-05 8.84184 0.000900476 8.47975C0.00133071 8.2952 0.00133243 8.11068 0.000664628 7.92613C-5.51877e-06 7.7256 0.000581088 7.52511 0.00147502 7.32457C0.000988263 7.26691 0.000501505 7.20926 0 7.14986C0.00549026 6.54891 0.174441 6.05976 0.533647 5.60904C0.559059 5.57519 0.584471 5.54134 0.610652 5.50646C1.53796 4.3671 3.22038 4.82678 4.38512 4.82678Z" fill="white"/>
<path d="M21.6154 4.82666C24.74 4.82666 24.74 4.82666 25.413 5.54628C25.7419 5.93323 25.9793 6.3984 25.9804 6.93633C25.9806 6.98992 25.9809 7.04351 25.9811 7.09873C25.9811 7.15745 25.9811 7.21616 25.9811 7.27666C25.9812 7.33917 25.9814 7.40167 25.9816 7.46607C25.9822 7.67629 25.9824 7.88651 25.9826 8.09673C25.9829 8.24716 25.9832 8.39758 25.9836 8.548C25.9846 8.99998 25.9851 9.45195 25.9855 9.90393C25.9858 10.1169 25.986 10.3299 25.9863 10.5429C25.9872 11.2511 25.9879 11.9593 25.9883 12.6675C25.9884 12.8512 25.9885 13.035 25.9886 13.2187C25.9886 13.2644 25.9886 13.31 25.9886 13.3571C25.9891 14.0965 25.9903 14.8358 25.992 15.5752C25.9937 16.3348 25.9946 17.0943 25.9947 17.8538C25.9948 18.2801 25.9953 18.7064 25.9966 19.1326C25.9977 19.4957 25.9981 19.8589 25.9976 20.222C25.9974 20.4071 25.9976 20.5922 25.9984 20.7773C25.9993 20.9784 25.999 21.1796 25.9983 21.3807C25.9989 21.4386 25.9994 21.4964 26 21.556C25.9943 22.2725 25.7322 22.8673 25.2705 23.369C24.2559 24.2802 22.7982 23.9363 21.6154 23.9363C21.6154 17.6301 21.6154 11.3239 21.6154 4.82666Z" fill="white"/>
</svg>
