<svg width="24" height="26" viewBox="0 0 24 26" fill="none" xmlns="http://www.w3.org/2000/svg">
<path d="M7.64991 13.3521C7.75593 13.3518 7.86194 13.3514 7.96796 13.351C8.25212 13.35 8.53625 13.3504 8.82041 13.351C9.12014 13.3516 9.41988 13.3511 9.71962 13.3507C10.2226 13.3504 10.7256 13.3509 11.2287 13.3519C11.8072 13.353 12.3858 13.3526 12.9643 13.3515C13.4643 13.3505 13.9642 13.3504 14.4642 13.3509C14.7614 13.3513 15.0586 13.3513 15.3558 13.3506C15.6354 13.35 15.915 13.3504 16.1946 13.3516C16.2962 13.3519 16.3978 13.3519 16.4994 13.3514C18.5449 13.3428 20.3727 14.0223 21.8403 15.3271C23.2985 16.6572 23.9874 18.3613 23.9949 20.2317C23.9948 20.3435 23.9946 20.4553 23.9944 20.5671C23.9947 20.6843 23.995 20.8015 23.9953 20.9187C23.9958 21.1623 23.9957 21.4059 23.9951 21.6496C23.9944 21.9615 23.9956 22.2734 23.9973 22.5854C23.9983 22.8265 23.9983 23.0676 23.998 23.3087C23.998 23.4238 23.9983 23.5388 23.9991 23.6539C23.9999 23.8143 23.9993 23.9745 23.9983 24.1349C23.9989 24.1821 23.9994 24.2292 24 24.2778C23.9963 24.5656 23.9558 24.7369 23.7393 24.9605C23.4844 25.1437 23.3195 25.1974 22.9966 25.1975C22.9579 25.1978 22.9191 25.1981 22.8791 25.1984C22.7493 25.1992 22.6196 25.1985 22.4897 25.1978C22.3957 25.198 22.3016 25.1983 22.2076 25.1988C21.9492 25.1996 21.6909 25.1992 21.4325 25.1985C21.1539 25.1981 20.8752 25.1988 20.5965 25.1994C20.0507 25.2003 19.5048 25.2001 18.9589 25.1995C18.5154 25.199 18.0718 25.199 17.6282 25.1992C17.5336 25.1992 17.5336 25.1992 17.437 25.1993C17.3088 25.1994 17.1807 25.1994 17.0525 25.1995C15.8502 25.2001 14.6479 25.1994 13.4456 25.1983C12.4136 25.1973 11.3817 25.1975 10.3497 25.1985C9.15176 25.1996 7.95381 25.2 6.75586 25.1994C6.62816 25.1993 6.50045 25.1993 6.37275 25.1992C6.30991 25.1992 6.24708 25.1991 6.18234 25.1991C5.73922 25.1989 5.29609 25.1992 4.85297 25.1997C4.31306 25.2003 3.77316 25.2002 3.23326 25.199C2.9577 25.1985 2.68217 25.1983 2.40662 25.199C2.15446 25.1996 1.90233 25.1992 1.65018 25.1981C1.55887 25.1979 1.46757 25.198 1.37626 25.1985C1.25226 25.1992 1.12834 25.1985 1.00434 25.1975C0.935438 25.1975 0.866535 25.1975 0.795543 25.1974C0.499272 25.156 0.322315 25.023 0.126887 24.8214C-0.000698218 24.5849 -0.000819141 24.3921 0.00173463 24.1317C0.00112963 24.0555 0.00112963 24.0555 0.000512404 23.9778C-0.000499438 23.8099 0.000170407 23.6422 0.000947911 23.4744C0.000792681 23.3568 0.000569145 23.2393 0.000280602 23.1218C-5.87887e-05 22.875 0.000434096 22.6284 0.00150986 22.3816C0.00281135 22.0682 0.00207295 21.7547 0.000688012 21.4412C-0.000151949 21.1981 0.000124454 20.955 0.000716987 20.7118C0.00086879 20.5964 0.000688357 20.4811 0.000146262 20.3657C-0.00705133 18.4004 0.684825 16.7628 2.16061 15.3271C2.19088 15.296 2.22114 15.2649 2.25232 15.2329C3.61985 13.8861 5.70286 13.343 7.64991 13.3521Z" fill="white"/>
<path d="M11.9754 9.10421e-06C12.0323 5.20455e-05 12.0323 5.20455e-05 12.0903 9.58548e-05C12.7222 0.00228264 13.2985 0.052127 13.8995 0.230316C13.9387 0.241597 13.9779 0.252879 14.0183 0.264502C14.8371 0.505737 15.5502 0.871865 16.2012 1.38843C16.2477 1.42338 16.2942 1.45832 16.3421 1.49433C17.504 2.39707 18.2618 3.74458 18.4454 5.12598C18.5728 6.9335 18.1509 8.50025 16.8427 9.88751C15.7941 10.9674 14.2597 11.7279 12.6677 11.8232C12.4536 11.8293 12.24 11.8315 12.0257 11.8312C11.9688 11.8312 11.9688 11.8312 11.9108 11.8311C11.2789 11.8289 10.7026 11.7791 10.1016 11.6009C10.0624 11.5896 10.0232 11.5783 9.98279 11.5667C9.16406 11.3255 8.45095 10.9593 7.79991 10.4428C7.75341 10.4078 7.7069 10.3729 7.65898 10.3369C6.69975 9.5916 6.0807 8.58913 5.72836 7.49485C5.70878 7.43662 5.6892 7.3784 5.66902 7.31842C5.2637 5.85239 5.55658 4.22519 6.36898 2.92305C7.27886 1.54103 8.6377 0.63514 10.3114 0.168421C10.8695 0.0429901 11.4003 -0.000726315 11.9754 9.10421e-06Z" fill="white"/>
</svg>
