<svg width="24" height="24" viewBox="0 0 24 24" fill="none" xmlns="http://www.w3.org/2000/svg">
<path d="M3.96943 0.217702C4.01324 0.236995 4.05705 0.256289 4.10219 0.276167C4.78704 0.614445 5.28718 1.20718 5.53549 1.92489C5.7634 2.67653 5.69392 3.48666 5.33973 4.18751C5.09808 4.59353 4.72142 5.06449 4.27034 5.24061C4.15604 5.30648 4.11686 5.33829 4.07909 5.46635C4.06731 5.60577 4.06617 5.74204 4.06823 5.88196C4.06773 5.93576 4.06723 5.98956 4.06671 6.04499C4.06545 6.21929 4.06643 6.39349 4.06749 6.56778C4.06704 6.67533 4.06645 6.78287 4.06571 6.89042C4.06398 7.28932 4.06509 7.68824 4.06585 8.08715C4.06488 8.97852 4.06392 9.86988 4.06293 10.7883C5.85244 10.7883 7.64196 10.7883 9.4857 10.7883C9.51655 10.7111 9.54741 10.6339 9.5792 10.5544C9.85513 10.0706 10.2129 9.74518 10.7011 9.47863C10.732 9.47863 10.7629 9.47863 10.7946 9.47863C10.7994 8.94681 10.8016 8.41505 10.8006 7.88321C10.8002 7.63623 10.8007 7.38933 10.8031 7.14237C10.8055 6.90397 10.8055 6.66567 10.804 6.42726C10.8039 6.33637 10.8045 6.24547 10.806 6.1546C10.8359 5.6687 10.8359 5.6687 10.6468 5.24809C10.5263 5.1756 10.4123 5.12946 10.2804 5.08203C9.69633 4.67875 9.39736 4.04944 9.22347 3.38251C9.10582 2.57971 9.24808 1.78663 9.729 1.12211C10.1799 0.551495 10.7746 0.159151 11.4959 0.0306123C12.0587 -0.0112523 12.6098 -0.0144384 13.132 0.217702C13.1753 0.236453 13.2186 0.255204 13.2632 0.274523C13.9991 0.634343 14.4444 1.2435 14.724 1.99761C14.9427 2.67939 14.8471 3.45813 14.5549 4.09981C14.2564 4.66258 13.842 5.07768 13.2723 5.36266C13.2569 6.72093 13.2414 8.0792 13.2255 9.47863C13.3027 9.5095 13.3798 9.54037 13.4593 9.57218C13.9176 9.81637 14.3139 10.2233 14.5345 10.6947C14.5345 10.7256 14.5345 10.7565 14.5345 10.7883C15.0567 10.7854 15.5789 10.7818 16.1011 10.7772C16.3436 10.7751 16.5861 10.7733 16.8287 10.7721C17.063 10.7708 17.2973 10.7689 17.5316 10.7666C17.6207 10.7658 17.7098 10.7653 17.7989 10.765C18.4244 10.7627 18.9953 10.7565 19.4898 10.3205C19.7959 9.95941 19.9308 9.57328 19.9346 9.10599C19.9354 9.06586 19.9363 9.02573 19.9372 8.98439C19.9397 8.85285 19.9411 8.72133 19.9423 8.58977C19.9428 8.5446 19.9433 8.49943 19.9438 8.45288C19.9465 8.21414 19.9483 7.9754 19.9493 7.73665C19.9506 7.49051 19.955 7.24452 19.96 6.99843C19.9633 6.80859 19.9644 6.61879 19.9648 6.42892C19.9654 6.3382 19.9668 6.24747 19.9692 6.15677C20.0007 5.66114 20.0008 5.66113 19.7972 5.23644C19.6661 5.15261 19.5403 5.09303 19.3963 5.03526C18.8046 4.56273 18.4705 3.90596 18.3678 3.16436C18.2992 2.37782 18.4873 1.67891 18.9639 1.04791C19.4107 0.52072 20.0713 0.0822885 20.774 0.0204494C21.673 -0.0201119 22.3814 0.112239 23.0899 0.710822C23.6716 1.26105 23.9739 1.90704 23.9996 2.70455C24.0041 3.1493 23.9737 3.54781 23.7906 3.95949C23.7713 4.00332 23.752 4.04716 23.7322 4.09232C23.4569 4.65019 23.022 5.06412 22.4817 5.36266C22.4508 5.36266 22.4199 5.36266 22.3882 5.36266C22.3886 5.41667 22.389 5.47067 22.3894 5.52632C22.3932 6.03818 22.396 6.55004 22.3978 7.06192C22.3988 7.32501 22.4001 7.58809 22.4023 7.85117C22.4043 8.10561 22.4054 8.36005 22.4059 8.6145C22.4062 8.71101 22.4069 8.80752 22.4079 8.90402C22.4158 9.6853 22.3387 10.3657 21.9674 11.0689C21.945 11.1134 21.9226 11.1579 21.8995 11.2037C21.5049 11.9378 20.8812 12.4931 20.1384 12.8609C20.1097 12.8755 20.0811 12.8902 20.0515 12.9053C19.3542 13.2299 18.6019 13.2469 17.8489 13.2387C17.7526 13.2383 17.6563 13.2381 17.56 13.2379C17.3097 13.2372 17.0593 13.2354 16.8089 13.2333C16.5522 13.2313 16.2955 13.2305 16.0388 13.2296C15.5374 13.2276 15.0359 13.2244 14.5345 13.2204C14.5206 13.2564 14.5068 13.2923 14.4925 13.3293C14.2905 13.8195 13.8659 14.2241 13.4125 14.4833C13.3505 14.5001 13.2882 14.5159 13.2255 14.53C13.2208 15.0619 13.2186 15.5936 13.2196 16.1255C13.22 16.3724 13.2195 16.6194 13.2171 16.8663C13.2147 17.1047 13.2146 17.343 13.2161 17.5814C13.2163 17.6723 13.2157 17.7632 13.2142 17.8541C13.1843 18.34 13.1843 18.34 13.3734 18.7606C13.4939 18.8331 13.6079 18.8792 13.7398 18.9267C14.3231 19.3294 14.6246 19.9597 14.7965 20.6267C14.9106 21.3943 14.7936 22.1624 14.3475 22.8088C13.884 23.397 13.278 23.8475 12.5243 23.9781C11.9615 24.0199 11.4104 24.0231 10.8881 23.791C10.8449 23.7722 10.8016 23.7535 10.757 23.7342C10.0211 23.3743 9.57579 22.7652 9.29615 22.0111C9.07702 21.328 9.17287 20.5477 9.46817 19.906C9.76639 19.3451 10.1792 18.9305 10.7479 18.646C10.771 16.6086 10.771 16.6086 10.7946 14.53C10.7175 14.4992 10.6404 14.4683 10.5609 14.4365C10.0979 14.1672 9.73153 13.7904 9.4857 13.314C9.4857 13.2831 9.4857 13.2522 9.4857 13.2204C7.69618 13.2204 5.90667 13.2204 4.06293 13.2204C4.06003 14.1089 4.05714 14.9974 4.05416 15.9128C4.05192 16.193 4.04968 16.4733 4.04737 16.7621C4.04783 17.0139 4.04783 17.0139 4.04897 17.2657C4.04915 17.3776 4.04832 17.4895 4.04668 17.6014C4.0444 17.7713 4.04535 17.9409 4.04701 18.1108C4.04559 18.1604 4.04418 18.2101 4.04273 18.2613C4.0462 18.4065 4.05459 18.5114 4.10968 18.646C4.26673 18.7866 4.43738 18.8776 4.6239 18.9734C5.21561 19.446 5.54966 20.1027 5.65236 20.8443C5.72087 21.629 5.53376 22.3274 5.05924 22.9578C4.59943 23.5007 3.96945 23.9244 3.24537 23.9883C2.71067 24.0119 2.22272 24.0053 1.72553 23.791C1.68569 23.7757 1.64586 23.7604 1.60482 23.7446C0.897554 23.4392 0.42777 22.78 0.137188 22.0927C-0.0765974 21.468 -0.0365467 20.6475 0.229588 20.0492C0.248872 20.0054 0.268155 19.9615 0.288023 19.9164C0.563297 19.3585 0.998179 18.9446 1.53853 18.646C1.56939 18.646 1.60024 18.646 1.63203 18.646C1.63203 14.2625 1.63203 9.879 1.63203 5.36266C1.5549 5.33179 1.47776 5.30092 1.39829 5.26912C0.746055 4.86236 0.290824 4.29019 0.0798483 3.5464C-0.0960562 2.76694 0.0335641 1.91847 0.455476 1.24432C0.894646 0.646578 1.4882 0.183695 2.23202 0.0445207C2.81536 -0.0356241 3.42647 -0.0240765 3.96943 0.217702Z" fill="white"/>
</svg>
