<svg width="24" height="24" viewBox="0 0 24 24" fill="none" xmlns="http://www.w3.org/2000/svg">
<path d="M5.1618 0.0408539C5.69657 0.285894 6.067 0.915965 6.37741 1.39306C6.41419 1.44898 6.45097 1.50491 6.48886 1.56252C6.84044 2.09969 7.18289 2.64196 7.51287 3.19265C7.54532 3.24678 7.57777 3.3009 7.6112 3.35667C9.11377 5.87733 9.11377 5.87733 9.009 6.55813C8.76952 7.05875 8.24298 7.43567 7.81928 7.77491C7.62755 7.93072 7.44357 8.09362 7.26219 8.26132C7.1836 8.33338 7.10316 8.40349 7.02049 8.47083C6.83012 8.62832 6.83012 8.62832 6.75512 8.8529C6.79799 9.17624 6.88861 9.46396 7.00859 9.76669C7.02768 9.81563 7.04676 9.86457 7.06642 9.91499C7.24303 10.3595 7.44645 10.7849 7.67317 11.2057C7.69196 11.2411 7.71076 11.2766 7.73012 11.3131C8.20767 12.2098 8.80306 13.007 9.48865 13.7567C9.57401 13.8515 9.65468 13.9471 9.73369 14.047C9.87029 14.2046 10.0152 14.3353 10.1739 14.47C10.2521 14.5373 10.3288 14.6065 10.4039 14.6774C11.1167 15.3483 11.9445 15.8702 12.8028 16.3341C12.8398 16.3541 12.8769 16.3741 12.915 16.3947C14.0438 17.0429 14.0438 17.0429 15.2607 17.2422C15.3838 17.1419 15.4868 17.0464 15.5947 16.9317C15.6253 16.9001 15.6559 16.8686 15.6874 16.836C15.91 16.6036 16.1155 16.3599 16.3158 16.1081C16.4523 15.9404 16.5945 15.7793 16.7401 15.6196C16.7866 15.5685 16.8331 15.5174 16.881 15.4647C17.3324 15.0049 17.3324 15.0049 17.6504 14.9879C18.9375 15.0079 20.4402 16.2538 21.5124 16.9217C21.6103 16.9822 21.7083 17.0427 21.8063 17.1032C23.8492 18.3718 23.8492 18.3718 23.9991 18.9573C24.0212 19.4914 23.6209 19.8417 23.2824 20.2104C22.8884 20.631 22.4845 21.0339 22.0467 21.409C21.9871 21.4612 21.9276 21.5135 21.8681 21.5659C21.4568 21.9268 21.0394 22.2763 20.6048 22.6087C20.5275 22.6679 20.4503 22.7273 20.3733 22.7867C20.0619 23.0269 19.7473 23.2621 19.4285 23.4924C19.3912 23.5196 19.3539 23.5469 19.3154 23.5749C18.8303 23.9225 18.4311 24.064 17.8255 23.9732C17.782 23.9669 17.7384 23.9607 17.6936 23.9543C16.2379 23.7301 14.8082 23.1886 13.4974 22.5308C13.4243 22.4944 13.4243 22.4944 13.3498 22.4574C11.2903 21.426 9.34918 20.0425 7.67463 18.4611C7.55965 18.3526 7.44147 18.2492 7.32126 18.1466C7.03572 17.8981 6.77001 17.6293 6.50297 17.3613C6.41432 17.2724 6.32539 17.1838 6.23642 17.0952C5.93819 16.7972 5.64888 16.495 5.37554 16.1738C5.29671 16.0868 5.2177 16 5.13843 15.9134C4.90328 15.6522 4.68349 15.3822 4.46717 15.1054C4.41096 15.0342 4.35474 14.9629 4.29852 14.8917C2.31121 12.3656 0.50707 9.41827 0.0322087 6.18419C0.0267759 6.14735 0.021343 6.11051 0.0157456 6.07255C-0.0629289 5.45312 0.161041 5.05963 0.513108 4.58158C0.546041 4.53673 0.578974 4.49187 0.612904 4.44566C1.2836 3.53973 1.98922 2.65876 2.74791 1.8248C2.8265 1.73833 2.90456 1.65137 2.9821 1.56396C4.43304 -0.0695382 4.43304 -0.0695381 5.1618 0.0408539Z" fill="white"/>
<path d="M12.8561 0.0409C15.1185 -0.0246963 17.438 0.665256 19.2681 2.01745C19.3241 2.05842 19.3802 2.0994 19.438 2.14161C19.8511 2.44858 20.2326 2.78334 20.6039 3.13928C20.6465 3.17967 20.6465 3.17967 20.6899 3.22087C21.1331 3.64301 21.5257 4.08709 21.8863 4.58163C21.9081 4.61116 21.9299 4.64069 21.9523 4.67112C23.3251 6.55385 24.0202 8.83518 23.9702 11.1523C23.3883 11.1523 22.8064 11.1523 22.2069 11.1523C22.1948 10.9485 22.1827 10.7447 22.1702 10.5347C22.0384 8.70864 21.431 6.9323 20.2833 5.48977C20.249 5.44648 20.249 5.44648 20.2141 5.40231C18.6301 3.42211 16.3961 2.16299 13.8713 1.85719C13.6603 1.84255 13.4491 1.83383 13.2378 1.82485C12.9151 1.80933 12.9151 1.80933 12.8561 1.75035C12.8514 1.62344 12.8499 1.49809 12.8509 1.37119C12.8509 1.33332 12.851 1.29546 12.8511 1.25644C12.8514 1.13505 12.8521 1.01367 12.8527 0.892286C12.853 0.810174 12.8532 0.728061 12.8535 0.645948C12.8541 0.444263 12.855 0.242582 12.8561 0.0409Z" fill="white"/>
<path d="M12.8561 4.31455C13.3273 4.306 13.7826 4.29885 14.2453 4.40135C14.29 4.41084 14.3347 4.42032 14.3807 4.43009C15.6699 4.71892 16.7741 5.38098 17.7185 6.2911C17.7569 6.32608 17.7952 6.36106 17.8348 6.3971C18.1708 6.71222 18.4257 7.08499 18.6803 7.46634C18.714 7.51627 18.7477 7.56619 18.7824 7.61763C19.1926 8.27065 19.4576 9.02785 19.6154 9.78011C19.6239 9.81954 19.6325 9.85896 19.6413 9.89958C19.7212 10.3266 19.6955 10.7002 19.6955 11.1523C19.1137 11.1523 18.5318 11.1523 17.9322 11.1523C17.9201 11.0036 17.908 10.8549 17.8955 10.7016C17.7835 9.57668 17.3712 8.56869 16.5964 7.73345C16.5574 7.69075 16.5183 7.64806 16.4781 7.60407C15.5658 6.64879 14.3839 6.20526 13.0932 6.09661C12.9095 6.07742 12.9095 6.07742 12.8561 6.024C12.8514 5.89709 12.8499 5.77174 12.8509 5.64484C12.8509 5.60697 12.851 5.5691 12.8511 5.53009C12.8514 5.4087 12.8521 5.28732 12.8527 5.16593C12.853 5.08382 12.8532 5.00171 12.8535 4.91959C12.8541 4.71791 12.855 4.51623 12.8561 4.31455Z" fill="white"/>
</svg>
